:SAMPLES-PER-SECOND 30
:FULLY-SPECIFIED
:DEGREES
205
root  -61.4958 39.6129 2.20009 -20.8546 -76.0947 14.4461
RightUpLeg  -9.45163 -3.11847 -10.5371
RightLeg  52.3943 -0.597156 -1.20642
RightFoot  -7.16813 -0.403423 9.71378
RightToes  -3.31784e-009 0 -3.6325e-017
Spine  11.5652 2.0589 -4.18113
Spine1  4.22275 1.91756 -2.82743
HEad  -17.5137 7.59976 -14.902
LeftShoulder1  -0.720678 5.42111 -31.4347
LeftArm  -3.61957 10.8898 -40.0025
LeftForeArm  33.5589 -53.7874 -12.5738
LeftHand  -0.0153587 6.63973 1.7157
RightShoulder  -0.995353 -6.25582 29.6104
RightArm  13.2496 -3.35754 47.3885
RightForeArm  17.8831 35.5806 6.96939
RightHand  -0.219928 4.73254 -2.81661
LeftUpLeg  -3.88521 2.18641 -8.29615
LeftLeg  20.5174 6.20941 2.88467
LeftFoot  -9.11517 -0.111221 8.55865
LeftToes  1.28511e-009 -3.60458e-011 6.16399e-011
206
root  -62.3236 39.6217 2.31292 -18.4069 -73.5589 11.8684
RightUpLeg  -12.3213 -1.17352 -10.2977
RightLeg  48.2102 -0.915763 -1.43981
RightFoot  -7.61736 -0.374948 9.91823
RightToes  -3.31784e-009 0 -3.6325e-017
Spine  11.3013 1.88403 -4.04884
Spine1  4.58742 1.84464 -2.93269
HEad  -16.7015 6.38204 -13.3263
LeftShoulder1  -0.709078 5.39377 -31.3607
LeftArm  -4.52981 10.561 -39.8284
LeftForeArm  32.7188 -53.8782 -12.6972
LeftHand  -0.0241793 5.8065 1.72212
RightShoulder  -1.0913 -6.47383 30.2082
RightArm  13.3991 -4.15519 46.282
RightForeArm  16.4273 32.5634 6.26096
RightHand  -0.2184 4.38862 -2.87731
LeftUpLeg  -2.28343 1.24694 -8.29766
LeftLeg  20.2899 4.73776 2.37782
LeftFoot  -10.2816 -0.0202742 8.91544
LeftToes  1.28511e-009 -3.60458e-011 6.16399e-011
207
root  -63.1438 39.5648 2.40072 -17.5183 -70.3021 10.9821
RightUpLeg  -14.6493 0.951193 -11.1744
RightLeg  43.1268 -0.685057 -0.979832
RightFoot  -8.02614 -0.349232 10.1475
RightToes  -3.31784e-009 0 -3.6325e-017
Spine  11.4847 1.65415 -4.74491
Spine1  4.36146 1.50352 -2.50671
HEad  -15.9071 4.94376 -12.1433
LeftShoulder1  -0.714242 5.41363 -31.2312
LeftArm  -5.31932 10.4125 -39.8788
LeftForeArm  31.9111 -52.6871 -12.163
LeftHand  -0.0275107 5.31161 2.502
RightShoulder  -1.14601 -6.5829 30.6944
RightArm  13.9559 -4.96088 45.3088
RightForeArm  15.1051 29.0694 5.47834
RightHand  -0.186311 4.4863 -2.46301
LeftUpLeg  -0.913744 -0.301336 -8.77092
LeftLeg  20.6117 3.48512 1.99953
LeftFoot  -11.5476 0.0848497 9.0155
LeftToes  1.28511e-009 -3.60458e-011 6.16399e-011
208
root  -63.9658 39.4973 2.46387 -15.687 -66.7371 9.54097
RightUpLeg  -16.858 3.60727 -12.3134
RightLeg  37.5059 -0.180696 -0.418879
RightFoot  -8.15102 -0.330616 9.85251
RightToes  -3.31784e-009 0 -3.6325e-017
Spine  11.7597 1.42755 -5.0835
Spine1  3.57054 1.14869 -1.82812
HEad  -14.9353 3.82802 -11.5819
LeftShoulder1  -0.870706 5.80143 -31.7291
LeftArm  -5.32991 9.95658 -39.4426
LeftForeArm  30.9195 -50.8795 -11.3851
LeftHand  -0.0217556 5.58439 3.16641
RightShoulder  -1.11983 -6.53248 30.445
RightArm  15.039 -6.28793 44.7336
RightForeArm  14.543 25.9144 4.78356
RightHand  -0.140809 3.53149 -2.08416
LeftUpLeg  -0.282855 -2.79142 -8.97795
LeftLeg  21.4276 2.40157 1.60403
LeftFoot  -12.7837 0.18265 8.3719
LeftToes  1.28511e-009 -3.60458e-011 6.16399e-011
209
root  -64.7851 39.4335 2.54524 -17.2837 -62.5534 10.2716
RightUpLeg  -17.056 7.21783 -14.9835
RightLeg  31.8752 0.626923 0.193665
RightFoot  -8.3941 -0.30889 9.76316
RightToes  -3.31784e-009 0 -3.6325e-017
Spine  13.6965 1.26995 -5.44015
Spine1  3.07883 0.929114 -1.59132
HEad  -14.4732 2.55249 -10.503
LeftShoulder1  -0.940583 5.95217 -32.2493
LeftArm  -5.48748 9.89948 -38.8611
LeftForeArm  31.3911 -48.9237 -10.5039
LeftHand  -0.0283549 5.29092 2.88806
RightShoulder  -1.11833 -6.53486 30.3669
RightArm  15.9531 -7.56874 44.6976
RightForeArm  12.6444 22.9767 4.29561
RightHand  -0.176499 3.41141 -2.55413
LeftUpLeg  2.44568 -6.11272 -10.4074
LeftLeg  21.0858 2.0561 1.33574
LeftFoot  -13.6075 0.241247 8.00827
LeftToes  1.28511e-009 -3.60458e-011 6.16399e-011
